<svg version="1" xmlns="http://www.w3.org/2000/svg" width="385.333" height="385.333" viewBox="0 0 289.000000 289.000000"><path d="M197.8 3.8c-1.4.2-2.8.9-3.1 1.5-.2.7 1.9 7.2 4.8 14.4 2.9 7.3 5.1 13.3 4.8 13.3-.3 0-.1.6.5 1.2.5.7 3.1 7.3 5.8 14.7 4.1 11.7 4.9 13.1 6 11.6.7-1 1.6-3.8 2-6.2.7-4.5-.8-9.5-9.6-31.8-1.7-4.4-3.6-9.6-4.1-11.5-1.5-5.1-3.9-7.6-7.1-7.2zM177.1 27.4l-2.2 2.3 2.8 3.4c1.5 1.9 3 3.6 3.4 3.9.3.3 2.9 3.2 5.9 6.5C206.8 65.8 208.8 68 210.1 68c1.1 0 4.9-3.2 4.9-4.2 0-.6-11.2-13.8-16-18.8-.8-.9-4.4-4.9-8-8.9-7.3-8.3-10.1-11.1-11-11.1-.4 0-1.7 1.1-2.9 2.4zM228.2 33c-1.8.3-3.3.8-3.2 1.2V36c0 1.6 6 1.2 6.6-.5 1-2.4.1-3-3.4-2.5zM223.5 39c-1.2 1.9.4 2.7 4.9 2.5 4.9-.1 6.2-.7 5.1-2.4-.8-1.4-9.2-1.4-10-.1zM221 44.9c0 1.6.8 1.8 6.8 1.6 8.4-.2 8.2-.2 8.2-2 0-1.2-1.5-1.5-7.5-1.5-6.6 0-7.5.2-7.5 1.9zM164.5 51.1c-.9 1.7-1.5 3.2-1.3 3.3.2.2 9.7 5.2 21.2 11.1l20.9 10.8 1.8-2.4c1.1-1.3 1.8-3 1.6-3.7C208.5 69 169.1 48 167 48c-.5 0-1.7 1.4-2.5 3.1zM237.4 55.1c.8 6.6 2.8 9 3.9 4.7.7-2.3-.3-4.8-2.8-6.8-1.4-1.1-1.5-.9-1.1 2.1zM242.5 61.4c-1.7 2.6-1.7 2.7 1 5.2 1.5 1.4 2.8 2.4 2.9 2.2.1-.2.9-1.2 1.9-2.4 1.6-2 1.6-2.1-1.2-4.8l-2.9-2.8-1.7 2.6zM250.8 67.1c-2.1 1.1-3.8 2.4-3.8 3 0 .9 1.7 4.7 2.5 5.7.5.6 10.5-4 10.5-4.9 0-2.1-2.5-5.9-3.9-5.9-.9.1-3.3 1-5.3 2.1zM162.8 73.6c-.5.4-.8 2-.8 3.5 0 3 .8 3.3 11 4.3 19.7 1.9 25.4 2.5 29.1 3.2 2.3.3 2.7 0 3.1-2.6.7-4.9.1-5.3-12.7-6.6-3.3-.3-7.1-.7-8.4-1-6.3-.9-20.7-1.5-21.3-.8zM262.9 75.4c-.4.4-7.6 1.4-11.2 1.5-1.5.1-1.8.8-1.5 3.8l.4 3.8 6-.3c9.5-.4 10.4-.8 9.9-4.2-.5-4.2-2-6.1-3.6-4.6zM249.8 88.4c-1.7 3.9-.6 5 7.3 7 4.1 1 7.9 2.1 8.5 2.3 1.4.5 3.8-5.7 2.7-6.8-.8-.7-14.9-4.9-16.6-4.9-.4 0-1.2 1.1-1.9 2.4zM184.6 92.5c-9.3 3-17.1 5.6-17.3 5.9-.3.2-.2 1.8.2 3.5.8 3.5 2 3.8 8.6 1.7 18-5.9 30.3-9.6 30.6-9.2.2.2-3.6 3.4-8.4 7.2-4.8 3.7-9 7.1-9.3 7.4-.3.3-2.6 2.1-5.2 3.9-4.5 3.2-6.8 6.1-4.8 6.1.5 0 1.2.9 1.5 2 .3 1.1 1.3 2 2.1 2 1.3 0 29.4-21.6 29.4-22.7 0-.2-1.1-1.9-2.5-3.7-1.4-1.8-2.8-4.7-3.1-6.4-.5-2.4-1.2-3.2-2.8-3.2-1.1.1-9.7 2.5-19 5.5zM91 95.6c-5.9 1.7-11.9 6.9-15.1 13-4.7 8.8-2.8 21 4.2 28.5 3.4 3.6 3.5 3.9 1.2 3.9-2.9 0-11 6.2-13.2 10.1-1.9 3.3-3.9 4.4-22.7 12.9-19 8.6-20.8 9.6-22 12.7-1.2 2.9-1.2 3.7.1 6.2.8 1.6 2.7 3.3 4.3 3.9 3.2 1.1 3.7.9 27-9.6l11.2-5.1v21.4c0 12 .4 22.5 1 24 1.2 3.2 1.3 3-10.4 33.2-4.7 12.2-8.6 23.4-8.6 24.8 0 8.2 10.3 12.2 15.8 6.1 1.1-1.1 6.2-13 11.3-26.3l9.3-24.3h5.3c6.6 0 6.5-.7 1.6 19.5-.2 1.1-.6 2.9-.8 4-.2 1.1-1.1 4.9-1.9 8.5-.9 3.6-1.9 9.1-2.2 12.3-.6 5.4-.5 6 2.2 8.8 3 3.1 6.5 3.7 10.7 1.8 4.1-1.9 3.5.1 13.9-46.7 2-9.2 2.6-10.6 5-11.8 3.1-1.6 7.2-6.7 8.4-10.4.4-1.4.8-15 .8-30.2.1-15.2.3-27.8.6-28 .6-.5 7.5-3.7 19-8.8 24.4-10.8 28.6-12.9 30.7-15.2 3.6-4 2.1-11.8-2.8-14.3-4-2.1-6.3-1.9-13.7 1.6-3.7 1.7-12.8 5.8-20.2 9.1-7.4 3.3-14.4 6.5-15.5 7.2-3.3 2-10.2 3.9-11.5 3.1-.8-.5-.2-1.6 1.8-3.4 8-7.1 10.3-21.1 4.9-30.3C114.4 97 102.6 92.1 91 95.6zM245 97.8c-1.9 2.1-4.6 4.4-5.8 5.2l-2.4 1.5 6.4 10.3c3.4 5.6 6.8 10.2 7.3 10.2.6 0 2.1-.9 3.4-1.9 2.5-1.9 2.5-2.5-.9-7.6-1.1-1.7-2.3-3.7-2.7-4.5-.4-.8-2-3.4-3.5-5.6-1.5-2.3-2.8-4.5-2.8-4.8 0-.4 3.9 2.3 8.7 5.9 4.7 3.6 8.9 6.5 9.3 6.5.9 0 4-4.5 4-5.8 0-.7-16.3-13.2-17.3-13.2-.1 0-1.8 1.7-3.7 3.8zM212.2 102.2c-.5.7-4.4 7.1-8.6 14.3l-7.7 13 2.8 2.2c2.6 2.1 2.9 2.2 4.4.5 2-2.2 15.9-25.8 15.9-27 0-.9-4.3-4.2-5.3-4.2-.3 0-.9.6-1.5 1.2zM219.6 108.2c-.3 1.8-.8 4.9-1.1 6.8-.3 1.9-.9 5.7-1.3 8.5-.4 2.7-.8 6.3-.7 8 0 2.6.4 3 3.3 3.3 1.7.2 3.2 0 3.3-.5 0-.4.2-1.5.4-2.3.2-.8.8-4.7 1.5-8.5 1.5-9.4 1.8-11.5 2.6-14.8.4-2.2.2-2.7-1.3-2.7-1 0-2.8-.3-3.9-.6-1.8-.5-2.2 0-2.8 2.8zM230.7 105.7c-1.6.4-1.8 1.1-1.2 5 .3 2.5.8 5.2 1 6.1.2 1 .9 4.4 1.6 7.7 1.4 7.2 2.5 8.5 6.2 7.8 3.4-.7 3.4-2 .3-16.3-2.3-11-2.8-11.7-7.9-10.3z"/></svg>